# File created by Blade
# Date/Time:  Fri Jan 16 17:45:47 2015
#---------------------------------------------------------
:version 1.10
:name HOM
:units
  mass 1.0
  length 1.000000
  angle deg
:documentation
     Acclaim Skeleton File
:root
   axis xyz
   order TX TY TZ RX RY RZ
   position 0.000000 0.000000 0.000000
   orientation 0 0 0
:bonedata
   begin
      id 1
      name Spine_dum
      direction 0.000000 1.000000 0.000000
      length 7.170412
      axis 0.0 0.0 0.0 xyz
   end
   begin
      id 2
      name LeftUpLeg_dum
      direction 1.000000 0.000000 0.000000
      length 4.318350
      axis 0.0 0.0 0.0 xyz
   end
   begin
      id 3
      name RightUpLeg_dum
      direction -1.000000 0.000000 0.000000
      length 4.318350
      axis 0.0 0.0 0.0 xyz
   end
   begin
      id 4
      name Spine
      direction 0.000000 1.000000 0.000000
      length 0.000000
      axis 0.0 0.0 0.0 xyz
      dof rx ry rz
   end
   begin
      id 5
      name Spine_dum1
      direction 0.000000 1.000000 0.000000
      length 14.276153
      axis 0.0 0.0 0.0 xyz
   end
   begin
      id 6
      name Spine_dum2
      direction 0.000000 1.000000 0.000000
      length 10.718243
      axis 0.0 0.0 0.0 xyz
   end
   begin
      id 7
      name Spine_dum3
      direction 0.000000 1.000000 0.000000
      length 10.718243
      axis 0.0 0.0 0.0 xyz
   end
   begin
      id 8
      name Head
      direction 0.000000 1.000000 0.000000
      length 4.527550
      axis 0.0 0.0 0.0 xyz
      dof rx ry rz
   end
   begin
      id 9
      name LeftShoulder
      direction 1.000000 0.000000 0.000000
      length 7.058872
      axis 0.0 0.0 -90.0 xyz
      dof rx ry rz
   end
   begin
      id 10
      name LeftArm
      direction 1.000000 0.000000 0.000000
      length 10.955525
      axis 0.0 0.0 -90.0 xyz
      dof rx ry rz
   end
   begin
      id 11
      name LeftForeArm
      direction 1.000000 0.000000 0.000000
      length 8.193716
      axis 0.0 0.0 -90.0 xyz
      dof ry rz rx
   end
   begin
      id 12
      name LeftHand
      direction 0.000000 0.000000 0.000000
      length 0.000000
      axis 0.0 0.0 -90.0 xyz
      dof rx ry rz
   end
   begin
      id 13
      name LeftHand_dum1
      direction 0.000000 0.000000 0.000000
      length 0.000000
      axis 0.0 0.0 -90.0 xyz
   end
   begin
      id 14
      name LeftHand_dum2
      direction 1.000000 0.000000 0.000000
      length 3.937000
      axis 0.0 0.0 -90.0 xyz
   end
   begin
      id 15
      name LeftHandThumb1
      direction 0.000000 0.000000 1.000000
      length 3.937000
      axis 0.0 0.0 -90.0 xyz
      dof rx rz ry
   end
   begin
      id 16
      name RightShoulder
      direction -1.000000 0.000000 0.000000
      length 7.058872
      axis 0.0 0.0 90.0 xyz
      dof rx ry rz
   end
   begin
      id 17
      name RightArm
      direction -1.000000 0.000000 0.000000
      length 10.955525
      axis 0.0 0.0 90.0 xyz
      dof rx ry rz
   end
   begin
      id 18
      name RightForeArm
      direction -1.000000 0.000000 0.000000
      length 8.193716
      axis 0.0 0.0 90.0 xyz
      dof ry rz rx
   end
   begin
      id 19
      name RightHand
      direction 0.000000 0.000000 0.000000
      length 0.000000
      axis 0.0 0.0 90.0 xyz
      dof rx ry rz
   end
   begin
      id 20
      name RightHand_dum1
      direction 0.000000 0.000000 0.000000
      length 0.000000
      axis 0.0 0.0 90.0 xyz
   end
   begin
      id 21
      name RightHand_dum2
      direction -1.000000 0.000000 0.000000
      length 3.937000
      axis 0.0 0.0 90.0 xyz
   end
   begin
      id 22
      name RightHandThumb1
      direction 0.000000 0.000000 1.000000
      length 3.937000
      axis 0.0 0.0 90.0 xyz
      dof rx rz ry
   end
   begin
      id 23
      name LeftUpLeg
      direction 0.000000 -1.000000 0.000000
      length 17.323638
      axis 0.0 0.0 0.0 xyz
      dof rx ry rz
   end
   begin
      id 24
      name LeftLeg
      direction 0.000000 -1.000000 0.000000
      length 16.270368
      axis 0.0 0.0 0.0 xyz
      dof rx ry rz
   end
   begin
      id 25
      name LeftFoot
      direction 0.000000 -0.258819 0.965926
      length 4.922846
      axis 15.0 0.0 0.0 xyz
      dof rx ry rz
   end
   begin
      id 26
      name LeftToeBase
      direction 0.000000 0.000000 1.000000
      length 2.952750
      axis 0.0 0.0 0.0 xyz
      dof rx ry rz
   end
   begin
      id 27
      name RightUpLeg
      direction 0.000000 -1.000000 0.000000
      length 17.323638
      axis 0.0 0.0 0.0 xyz
      dof rx ry rz
   end
   begin
      id 28
      name RightLeg
      direction 0.000000 -1.000000 0.000000
      length 16.270368
      axis 0.0 0.0 0.0 xyz
      dof rx ry rz
   end
   begin
      id 29
      name RightFoot
      direction 0.000000 -0.258819 0.965926
      length 4.922846
      axis 15.0 0.0 0.0 xyz
      dof rx ry rz
   end
   begin
      id 30
      name RightToeBase
      direction 0.000000 0.000000 1.000000
      length 2.952750
      axis 0.0 0.0 0.0 xyz
      dof rx ry rz
   end
:hierarchy
   begin
      root Spine_dum LeftUpLeg_dum RightUpLeg_dum
      Spine_dum Spine
      LeftUpLeg_dum LeftUpLeg
      RightUpLeg_dum RightUpLeg
      Spine Spine_dum1 Spine_dum2 Spine_dum3
      Spine_dum1 Head
      Spine_dum2 LeftShoulder
      Spine_dum3 RightShoulder
      LeftShoulder LeftArm
      LeftArm LeftForeArm
      LeftForeArm LeftHand
      LeftHand LeftHand_dum1 LeftHand_dum2
      LeftHand_dum1 LeftHandThumb1
      RightShoulder RightArm
      RightArm RightForeArm
      RightForeArm RightHand
      RightHand RightHand_dum1 RightHand_dum2
      RightHand_dum1 RightHandThumb1
      LeftUpLeg LeftLeg
      LeftLeg LeftFoot
      LeftFoot LeftToeBase
      RightUpLeg RightLeg
      RightLeg RightFoot
      RightFoot RightToeBase
   end

# File created by Blade
# Date/Time:  Fri Jan 16 17:45:28 2015
# Frame Rate: 120.000 fps
#------------------------------------------------------
:FULLY-SPECIFIED
:DEGREES
278
root -5.386771 35.267503 -10.106418 -1.580454 -5.599439 -5.655226
Spine -0.326232 -0.487376 10.645780
Head 1.826442 6.052878 -9.515487
LeftShoulder -21.553848 12.834645 -17.425780
LeftArm 16.195742 -15.397829 -77.706775
LeftForeArm 10.009751 0.000000 8.092796
LeftHand 0.636299 -0.000000 -7.488600
LeftHandThumb1 -26.253704 0.000000 33.147579
RightShoulder -3.076868 -0.533844 2.569195
RightArm -4.569432 -4.188811 70.817164
RightForeArm -20.895502 -0.000000 14.054878
RightHand 1.113882 -0.000000 7.235154
RightHandThumb1 -24.326973 -0.000000 -32.862282
LeftUpLeg 11.216786 14.905687 6.918280
LeftLeg -8.765540 -0.000000 0.000000
LeftFoot -15.465283 26.984832 -8.960393
LeftToeBase 22.746208 -0.000000 -0.000000
RightUpLeg 7.800379 -4.386274 3.841908
RightLeg -4.412685 -0.000000 0.000000
RightFoot -4.169221 -27.101533 3.716055
RightToeBase 13.644805 -0.000000 -0.000000
279
root -5.382682 35.270570 -10.115285 -1.531354 -5.750266 -5.732206
Spine -0.293623 -0.350092 10.805159
Head 1.737915 6.097771 -9.629976
LeftShoulder -21.593570 12.926408 -17.496802
LeftArm 15.970001 -13.049268 -77.184464
LeftForeArm 8.707154 0.000000 8.653110
LeftHand 0.648966 -0.000000 -7.341077
LeftHandThumb1 -26.253704 0.000000 33.147579
RightShoulder -3.015240 -0.566100 2.584207
RightArm -4.555963 -4.457793 70.922808
RightForeArm -20.812868 -0.000000 14.180333
RightHand 1.216790 -0.000000 7.182904
RightHandThumb1 -24.326973 -0.000000 -32.862282
LeftUpLeg 11.196709 15.039574 6.986458
LeftLeg -8.768443 -0.000000 0.000000
LeftFoot -15.456048 26.987256 -8.995142
LeftToeBase 22.585202 -0.000000 -0.000000
RightUpLeg 7.697521 -4.222790 3.922575
RightLeg -4.340503 -0.000000 0.000000
RightFoot -4.146643 -27.108419 3.804050
RightToeBase 13.576181 -0.000000 -0.000000
280
root -5.380054 35.271734 -10.121416 -1.506576 -5.869173 -5.770773
Spine -0.248839 -0.225402 10.889176
Head 1.663675 6.092772 -9.691251
LeftShoulder -21.589514 12.980522 -17.488726
LeftArm 15.868868 -12.229080 -77.213012
LeftForeArm 8.766738 -0.000000 9.083556
LeftHand 0.801557 0.000000 -7.196706
LeftHandThumb1 -26.253704 0.000000 33.147579
RightShoulder -2.988878 -0.596560 2.603081
RightArm -4.525836 -4.838022 71.063847
RightForeArm -20.745216 -0.000000 14.293349
RightHand 1.218593 -0.000000 6.755452
RightHandThumb1 -24.326973 -0.000000 -32.862282
LeftUpLeg 11.195863 15.139188 7.022414
LeftLeg -8.768008 -0.000000 0.000000
LeftFoot -15.478524 27.032426 -8.899133
LeftToeBase 22.687217 -0.000000 -0.000000
RightUpLeg 7.631770 -4.092823 3.963806
RightLeg -4.284433 -0.000000 0.000000
RightFoot -4.135759 -27.106615 3.845459
RightToeBase 13.561726 -0.000000 -0.000000
281
root -5.377928 35.270984 -10.119279 -1.516211 -5.870986 -5.758392
Spine -0.221933 -0.202522 10.888682
Head 1.628387 6.094548 -9.705309
LeftShoulder -21.591123 13.078655 -17.459634
LeftArm 15.855672 -11.691833 -77.331499
LeftForeArm 9.120543 -0.000000 9.422282
LeftHand 0.950553 -0.000000 -7.003710
LeftHandThumb1 -26.253704 0.000000 33.147579
RightShoulder -2.983036 -0.644248 2.658338
RightArm -4.481933 -5.134809 71.153298
RightForeArm -20.654517 -0.000000 14.352298
RightHand 1.315784 -0.000000 7.289563
RightHandThumb1 -24.326973 -0.000000 -32.862282
LeftUpLeg 11.205645 15.130531 7.007896
LeftLeg -8.766236 -0.000000 0.000000
LeftFoot -15.485376 27.045438 -8.911249
LeftToeBase 22.711033 -0.000000 -0.000000
RightUpLeg 7.660760 -4.075950 3.948757
RightLeg -4.322103 -0.000000 0.000000
RightFoot -4.129544 -27.128026 3.828364
RightToeBase 13.624415 -0.000000 -0.000000
282
root -5.375267 35.270277 -10.117220 -1.527856 -5.877460 -5.748708
Spine -0.189965 -0.163338 10.900358
Head 1.588204 6.109420 -9.728905
LeftShoulder -21.588948 13.156242 -17.432242
LeftArm 15.829019 -11.127517 -77.413460
LeftForeArm 9.234288 -0.000000 9.748545
LeftHand 1.043405 -0.000000 -7.048303
LeftHandThumb1 -26.253704 0.000000 33.147579
RightShoulder -2.993736 -0.702321 2.691219
RightArm -4.436650 -5.578069 71.243672
RightForeArm -20.407101 -0.000000 14.501044
RightHand 1.341277 -0.000000 7.011425
RightHandThumb1 -24.326973 -0.000000 -32.862282
LeftUpLeg 11.220928 15.113972 6.996396
LeftLeg -8.762342 -0.000000 0.000000
LeftFoot -15.483907 27.052502 -8.912575
LeftToeBase 22.707201 -0.000000 -0.000000
RightUpLeg 7.679896 -4.088598 3.933824
RightLeg -4.335164 -0.000000 0.000000
RightFoot -4.122618 -27.119499 3.811937
RightToeBase 13.623174 -0.000000 -0.000000
283
root -5.371136 35.270007 -10.116140 -1.532495 -5.891831 -5.746405
Spine -0.164025 -0.137973 10.925884
Head 1.566615 6.107415 -9.760290
LeftShoulder -21.606389 13.242286 -17.413155
LeftArm 15.820943 -10.566837 -77.496264
LeftForeArm 9.202515 -0.000000 10.043880
LeftHand 1.143305 0.000000 -6.867894
LeftHandThumb1 -26.253704 0.000000 33.147579
RightShoulder -2.970343 -0.736162 2.702723
RightArm -4.391934 -5.999669 71.337516
RightForeArm -20.067783 -0.000000 14.540735
RightHand 1.447165 -0.000000 6.856690
RightHandThumb1 -24.326973 -0.000000 -32.862282
LeftUpLeg 11.234401 15.126465 6.988443
LeftLeg -8.772650 -0.000000 0.000000
LeftFoot -15.494860 27.060988 -8.925307
LeftToeBase 22.701905 -0.000000 -0.000000
RightUpLeg 7.686373 -4.098408 3.921872
RightLeg -4.338046 -0.000000 0.000000
RightFoot -4.120963 -27.094141 3.802457
RightToeBase 13.612802 -0.000000 -0.000000
284
root -5.368558 35.268179 -10.109506 -1.565326 -5.948017 -5.757062
Spine -0.107318 -0.065139 10.965997
Head 1.544392 6.116487 -9.785710
LeftShoulder -21.616341 13.321062 -17.367435
LeftArm 15.794531 -10.017805 -77.576139
LeftForeArm 9.176010 0.000000 10.318408
LeftHand 1.382778 -0.000000 -6.757235
LeftHandThumb1 -26.253704 0.000000 33.147579
RightShoulder -2.966735 -0.783320 2.692519
RightArm -4.330158 -6.403936 71.434161
RightForeArm -19.698722 0.000000 14.585056
RightHand 1.462752 0.000000 6.806001
RightHandThumb1 -24.326973 -0.000000 -32.862282
LeftUpLeg 11.320169 15.197312 7.014345
LeftLeg -8.824160 -0.000000 0.000000
LeftFoot -15.489249 27.048843 -8.907379
LeftToeBase 22.732743 -0.000000 -0.000000
RightUpLeg 7.739746 -4.038772 3.925626
RightLeg -4.363076 -0.000000 0.000000
RightFoot -4.107894 -27.101991 3.796757
RightToeBase 13.585657 -0.000000 -0.000000
285
root -5.365456 35.267161 -10.106010 -1.576754 -5.973700 -5.755887
Spine -0.078411 -0.012514 10.988406
Head 1.529878 6.105493 -9.801889
LeftShoulder -21.622661 13.383594 -17.324185
LeftArm 15.783037 -9.489401 -77.644628
LeftForeArm 8.879718 -0.000000 10.536343
LeftHand 1.483972 -0.000000 -6.603429
LeftHandThumb1 -26.253704 0.000000 33.147579
RightShoulder -2.956097 -0.819138 2.691751
RightArm -4.278928 -6.723771 71.501167
RightForeArm -19.461256 -0.000000 14.635839
RightHand 1.537288 -0.000000 6.844452
RightHandThumb1 -24.326973 -0.000000 -32.862282
LeftUpLeg 11.360396 15.239205 7.016691
LeftLeg -8.857756 -0.000000 0.000000
LeftFoot -15.466559 27.041223 -8.891718
LeftToeBase 22.703033 -0.000000 -0.000000
RightUpLeg 7.763038 -4.013305 3.917482
RightLeg -4.378948 -0.000000 0.000000
RightFoot -4.111189 -27.097317 3.800550
RightToeBase 13.612015 -0.000000 -0.000000
286
root -5.350054 35.267204 -10.099101 -1.533028 -6.235033 -5.793872
Spine -0.091141 0.225296 11.153068
Head 1.548609 6.165460 -9.943136
LeftShoulder -21.712558 13.475903 -17.388786
LeftArm 15.796942 -8.960985 -77.695771
LeftForeArm 8.714079 -0.000000 10.724327
LeftHand 1.636696 -0.000000 -6.572445
LeftHandThumb1 -26.253704 0.000000 33.147579
RightShoulder -2.905509 -0.938102 2.589032
RightArm -4.165757 -7.085552 71.548178
RightForeArm -19.231802 -0.000000 14.686170
RightHand 1.611315 -0.000000 7.034833
RightHandThumb1 -24.326973 -0.000000 -32.862282
LeftUpLeg 11.461305 15.555324 7.049382
LeftLeg -8.991178 -0.000000 0.000000
LeftFoot -15.427461 26.994010 -8.909288
LeftToeBase 22.662924 -0.000000 -0.000000
RightUpLeg 7.686894 -3.775600 3.932867
RightLeg -4.316734 -0.000000 0.000000
RightFoot -4.105070 -27.049410 3.851358
RightToeBase 13.600914 -0.000000 -0.000000
